<?xml version="1.0" encoding="utf-8"?>
<!-- Generator: Adobe Illustrator 22.1.0, SVG Export Plug-In . SVG Version: 6.00 Build 0)  -->
<svg version="1.1" xmlns="http://www.w3.org/2000/svg" xmlns:xlink="http://www.w3.org/1999/xlink" x="0px" y="0px"
	 viewBox="0 0 2001 1001" style="enable-background:new 0 0 2001 1001;" xml:space="preserve">
<style type="text/css">
	.st0{fill:#FFFFCC;stroke:#000000;stroke-miterlimit:10;}
	.st1{fill:#FFDD2B;}
</style>
<g id="レイヤー_2">
	<rect x="0.5" y="0.5" class="st0" width="2000" height="1000"/>
</g>
<g id="svg8" inkscape:version="0.92.2 5c3e80d, 2017-08-06" sodipodi:docname="fizzee.svg" xmlns:cc="http://creativecommons.org/ns#" xmlns:dc="http://purl.org/dc/elements/1.1/" xmlns:inkscape="http://www.inkscape.org/namespaces/inkscape" xmlns:rdf="http://www.w3.org/1999/02/22-rdf-syntax-ns#" xmlns:sodipodi="http://sodipodi.sourceforge.net/DTD/sodipodi-0.dtd" xmlns:svg="http://www.w3.org/2000/svg">
	
		<sodipodi:namedview  bordercolor="#666666" borderopacity="1.0" id="base" inkscape:current-layer="layer1" inkscape:cx="607.77118" inkscape:cy="200.0637" inkscape:document-units="mm" inkscape:pageopacity="0.0" inkscape:pageshadow="2" inkscape:window-height="778" inkscape:window-maximized="1" inkscape:window-width="1234" inkscape:window-x="46" inkscape:window-y="0" inkscape:zoom="0.24748737" pagecolor="#ffffff" showgrid="false">
		</sodipodi:namedview>
	<path id="path5278" class="st1" d="M589.8,781c-13.5-8.7-24.1-23.5-39-54.1c-3.8-7.8-7.4-14.9-8-15.7s-6.8-12-13.7-25.1
		c-7-13-18.4-34.3-25.5-47.3c-16.6-30.7-19.9-39.3-22.4-58.2c-2.3-17.7-0.3-29.3,7.9-44.6c10.4-19.2,24-32.2,68.1-64.6
		c2.6-1.9,12.9-10.1,22.7-18c21.6-17.5,25.7-20.6,38.8-29.7c5.6-3.9,12.7-9.8,15.9-13.1l5.7-6l-4.6-9.9c-2.5-5.4-11-21.2-18.7-35
		c-26-46.5-31.3-62.6-28.8-87.8c3.8-38.7,38.8-66.7,70.3-56.2c6.2,2.1,13.9,5.9,17.1,8.6c7.5,6.2,19.9,24.6,29,42.8
		c3.9,7.9,7.6,14.9,8.1,15.7c0.5,0.8,5.5,10.2,11,21c5.5,10.8,11.5,22,13.3,25c17.7,28.9,32.2,61.4,35.5,79.4
		c2.1,11.4-3.6,37.4-11,50c-6.8,11.7-17,20.8-60.1,53.6c-44.3,33.7-80.6,62.8-85.7,68.6c-3.4,3.8-3.5,5.3-0.7,10.2
		c1.8,3.2,4.7,8.5,6.3,11.9c3.6,7.4,15.5,29.4,22.9,42.4c17.5,30.7,21.5,39.3,24.8,52.9c7,28.8,2.2,51.5-15.1,71.9
		c-13,15.4-26.2,20.9-43.8,18.4C602.5,786.9,594.8,784.2,589.8,781L589.8,781z"/>
	<path id="path5276" d="M1418.6,502.4c-15.6-3.6-31.3-5.9-42.3-5.7c-24.4,0.3-58.9,8.5-80.3,19.1c-50,24.6-84.5,68-101,126.8
		c-21,75.1-3.1,146.2,49.2,195.4c9.4,8.8,26.6,20.2,44.3,29.3c10.6,5.4,23.6,9.7,45.2,14.8c45.9,10.8,82,10.7,117.8-0.6
		c18.7-5.9,55.1-26.2,62-34.6c15.1-18.6,7.2-47.8-16.2-60.1c-4.4-2.3-9.4-4.2-10.9-4.1c-1.6,0.1-5.8,0.1-9.4,0.1
		c-3.6-0.1-15.8,5-27.2,11.3c-36.4,20.2-62.7,24.6-98.3,16.3c-26.6-6.1-44.3-16-59.2-32.9c-12.7-14.4-18.8-26.3-22.7-44.2
		c-3.6-16.7-2.1-42.6,2.9-49.9l3.7-5.4l105.6,23.7l105.6,23.7l16.7-3.7c27.5-6.1,43.8-22.7,49.7-50.4
		c12.2-57.7-27.2-123.3-93.3-155.1C1449.8,510.9,1434.2,506,1418.6,502.4z M1405.5,570.8c18.9,4.4,26,7.1,35.2,13.3
		c15.9,10.7,26.2,22.7,30.5,35.9c5.2,15.9,4.2,26-3.1,30.4c-5.7,3.5-7.3,3.2-86.3-15.2c-44.3-10.3-81.6-19.5-83-20.5
		c-8.6-5.9,17-30.5,41.6-40C1364.4,565.3,1378.4,564.5,1405.5,570.8z"/>
	<path id="path5272" d="M1830.8,597c-16.5-3.5-33.5-5-50.7-4.2c-84.3,3.9-152.6,62.7-174.6,150.4c-17.5,69.7-0.9,137.2,45.2,183.5
		c14.7,14.8,28.4,24.5,49.9,35.6c19.6,10,67.5,21.6,95,22.9c22.2,1,47.1-2.1,68.3-8.6c20.7-6.4,58.5-28.3,63.9-37.1
		c14-22.6,0.3-54.2-26.3-60.3c-13.7-3.2-18.7-1.8-41.3,10.9c-34,19.1-61.6,23.5-96.7,15.4c-25.3-5.8-41.3-14.4-56.7-30.3
		c-13.4-13.8-19.7-25.6-24.6-46.1c-3.3-14-3.3-18.2,0.6-35.6l4.4-19.7l106.1,23.3l106.1,23.3l15.6-3.1c57.5-11.3,71.6-78.7,30-143
		c-16.2-25.1-29.4-38-54.3-53.3C1872.2,609.6,1851.9,601.5,1830.8,597z M1817.7,666c26.3,6.1,40.2,13.6,54.6,29.6
		c15.5,17.3,19.6,42.9,8,49.9c-5.7,3.5-7.3,3.2-86.3-15.1c-44.3-10.2-81.7-19.8-83.2-21.3c-6.6-6.5,14.6-27.2,38.7-37.7
		C1774.2,660.6,1789.3,659.4,1817.7,666z"/>
	<path id="path5268" d="M277.1,631.4c-4.7-3.8-9.9-11-11.7-16.1l-3.3-9.2l37.4-161.9c41.6-180.4,37.3-167.1,56.9-175.7
		c12.2-5.3,31.2-3,43.9,5.4c9.7,6.4,19.9,21.8,18.7,28.2c-0.4,2.1-17.1,75.2-37.2,162.5c-40.6,176.8-37.3,166.6-56.6,175
		C312,645.3,289.5,641.5,277.1,631.4z"/>
	<path id="path5266" d="M49.5,576.4c-2.8-1.9-7-6.2-9.3-9.5c-9.6-13.8-10.1-10.3,20.4-141.5c15.5-67,28.7-126.6,29.2-132.5l0.9-10.7
		l-21-4.9c-27.1-6.3-36.4-12.3-41.1-26.7c-6.4-19.5,4.2-44.1,21.7-50.6c5.7-2.1,12.9-1.7,32.3,1.9l25,4.6l9.8-35.8
		c5.4-19.7,11.3-39,13.2-43c15.9-34,30.7-51.5,57.1-67.5c33.1-20.1,68.2-25.6,106.9-16.7c20.8,4.8,33.4,13.2,39.1,25.9
		c4.7,10.5-0.5,31.8-10,41.1c-10.7,10.5-18.2,12.1-42.4,8.7c-24.9-3.4-36.6-1.5-49.7,8.2c-14.6,10.8-23.8,28.4-33,62.7
		c-5.8,21.8-7.5,30.9-6,33.8c1.7,3.2,9.1,5.5,39.7,12.6c35.4,8.2,38.1,9.1,44.1,15.4c18.3,19.1,11,54.1-13.3,63.8
		c-7.6,3-11.1,2.6-48.3-5.2c-28.5-6-40.4-7.8-41-6c-0.4,1.4-14.5,61.2-31.3,132.9l-30.5,130.4l-8.9,6.8c-4.9,3.7-12.7,7.7-17.5,8.9
		C76.3,585.5,57.8,582,49.5,576.4L49.5,576.4z"/>
	<path id="path5264" d="M814.9,750.9c-28.6-19.1-33.6-52.9-11.8-79.9c10-12.4,13.9-15.1,112.3-79.1c77-50,116.2-77,123.4-84.9
		c4.6-5.1,5.2-6.6,3-9c-1.7-1.9-27.7-8.1-75.7-18c-82.2-17-84-17.7-91.1-35.5c-3-7.6-2.9-11,0.7-23.4c4.8-16.4,11.1-23.3,24.2-26.5
		c7.1-1.7,19.8,0.9,117.6,24.2c62.4,14.9,112.6,27.8,116.7,30c10.7,5.9,19.1,17.1,22.1,29.5c2.2,9.3,1.9,13.7-1.7,25.6
		c-7.7,24.9-6.4,23.8-121.8,98.2c-110.1,71-130.6,84.7-131.8,87.9c-3.6,9.1-7.1,8,94.4,30.7c88.6,19.8,97,22,103,27.1
		c18.2,15.5,14.5,46.6-7.1,58.7c-15.6,8.8-17.9,8.5-147.2-21.5C832.1,759.3,824.4,757.3,814.9,750.9L814.9,750.9z"/>
	<path id="path5242" d="M389.3,170.2c-26.2-13.9-35.9-44.5-22.9-72.4c12.3-26.4,49.6-37.1,77.4-22.2c11.9,6.4,25.6,24.5,28.4,37.6
		c6.8,31.6-19.9,63.4-53.8,64.1C404.1,177.5,402.6,177.2,389.3,170.2L389.3,170.2z"/>
</g>
</svg>
